<svg width="39" height="39" viewBox="0 0 39 39" fill="none" xmlns="http://www.w3.org/2000/svg">
<path d="M21.4062 8.46875C21.4062 9.50781 20.5898 10.25 19.625 10.25C18.5859 10.25 17.8438 9.50781 17.8438 8.46875V2.53125C17.8438 1.56641 18.5859 0.75 19.625 0.75C20.5898 0.75 21.4062 1.56641 21.4062 2.53125V8.46875ZM21.4062 36.9688C21.4062 38.0078 20.5898 38.75 19.625 38.75C18.5859 38.75 17.8438 38.0078 17.8438 36.9688V31.0312C17.8438 30.0664 18.5859 29.25 19.625 29.25C20.5898 29.25 21.4062 30.0664 21.4062 31.0312V36.9688ZM0.625 19.75C0.625 18.7852 1.36719 17.9688 2.40625 17.9688H8.34375C9.30859 17.9688 10.125 18.7852 10.125 19.75C10.125 20.7891 9.30859 21.5312 8.34375 21.5312H2.40625C1.36719 21.5312 0.625 20.7891 0.625 19.75ZM36.8438 17.9688C37.8086 17.9688 38.625 18.7852 38.625 19.75C38.625 20.7891 37.8086 21.5312 36.8438 21.5312H30.9062C29.8672 21.5312 29.125 20.7891 29.125 19.75C29.125 18.7852 29.8672 17.9688 30.9062 17.9688H36.8438ZM33.0586 6.31641C33.7266 7.05859 33.7266 8.17188 33.0586 8.83984L28.8281 13.0703C28.1602 13.7383 26.9727 13.7383 26.3047 13.0703C25.6367 12.4023 25.6367 11.2148 26.3047 10.5469L30.5352 6.31641C31.2031 5.64844 32.3164 5.64844 33.0586 6.31641ZM8.64062 33.1836C7.97266 33.9258 6.85938 33.9258 6.11719 33.1836C5.44922 32.5156 5.44922 31.4023 6.11719 30.7344L10.3477 26.5039C11.0156 25.8359 12.2031 25.8359 12.8711 26.5039C13.5391 27.1719 13.5391 28.3594 12.8711 29.0273L8.64062 33.1836ZM6.11719 6.31641C6.85938 5.64844 7.97266 5.64844 8.64062 6.31641L12.8711 10.5469C13.5391 11.2148 13.5391 12.4023 12.8711 13.0703C12.2031 13.7383 11.0156 13.7383 10.3477 13.0703L6.11719 8.83984C5.44922 8.17188 5.44922 7.05859 6.11719 6.31641ZM33.0586 30.7344C33.7266 31.4023 33.7266 32.5156 33.0586 33.1836C32.3164 33.9258 31.2031 33.9258 30.5352 33.1836L26.3047 29.0273C25.6367 28.3594 25.6367 27.1719 26.3047 26.5039C26.9727 25.8359 28.1602 25.8359 28.8281 26.5039L33.0586 30.7344Z" fill="#7F8790"/>
</svg>
